<svg width="56" height="29" viewBox="0 0 56 29" fill="none" xmlns="http://www.w3.org/2000/svg">
<rect width="56" height="28" fill="#F4B928"/>
<rect x="2.02898" y="2.43481" width="51.5362" height="16.6377" fill="#2D2C2C"/>
<path d="M15.3226 6.79049V14.4637H13.7003V8.33039H13.6553L11.8981 9.43192V7.99318L13.7977 6.79049H15.3226ZM20.1549 14.6323C19.5105 14.6298 18.956 14.4712 18.4914 14.1565C18.0293 13.8418 17.6733 13.3859 17.4236 12.789C17.1763 12.192 17.0539 11.4739 17.0564 10.6346C17.0564 9.79785 17.18 9.08472 17.4273 8.49524C17.6771 7.90576 18.033 7.4574 18.4951 7.15018C18.9597 6.84045 19.513 6.68558 20.1549 6.68558C20.7968 6.68558 21.3489 6.84045 21.8109 7.15018C22.2755 7.4599 22.6327 7.90951 22.8825 8.49899C23.1323 9.08597 23.2559 9.79785 23.2534 10.6346C23.2534 11.4764 23.1285 12.1957 22.8788 12.7927C22.6315 13.3897 22.2768 13.8455 21.8147 14.1603C21.3526 14.475 20.7993 14.6323 20.1549 14.6323ZM20.1549 13.2873C20.5945 13.2873 20.9455 13.0662 21.2077 12.6241C21.47 12.182 21.5999 11.5188 21.5974 10.6346C21.5974 10.0526 21.5374 9.56805 21.4175 9.18089C21.3001 8.79373 21.1328 8.50274 20.9155 8.30791C20.7007 8.11308 20.4471 8.01566 20.1549 8.01566C19.7178 8.01566 19.3681 8.23422 19.1058 8.67134C18.8436 9.10845 18.7112 9.76288 18.7087 10.6346C18.7087 11.2241 18.7674 11.7162 18.8848 12.1108C19.0047 12.503 19.1733 12.7977 19.3906 12.995C19.6079 13.1899 19.8627 13.2873 20.1549 13.2873ZM27.2727 14.5687C26.6957 14.5687 26.1824 14.475 25.7328 14.2876C25.2857 14.0978 24.9348 13.8393 24.68 13.5121C24.4252 13.1849 24.2978 12.8139 24.2978 12.3993C24.2978 12.0796 24.3703 11.7861 24.5151 11.5188C24.6625 11.2491 24.8623 11.0255 25.1146 10.8482C25.3669 10.6683 25.6491 10.5534 25.9614 10.5035V10.451C25.5517 10.3686 25.2195 10.17 24.9647 9.8553C24.71 9.53808 24.5826 9.16965 24.5826 8.75002C24.5826 8.35287 24.6987 7.99943 24.931 7.6897C25.1633 7.37747 25.4818 7.13269 25.8864 6.95535C26.2936 6.7755 26.7557 6.68558 27.2727 6.68558C27.7898 6.68558 28.2506 6.7755 28.6552 6.95535C29.0624 7.13519 29.3821 7.38122 29.6144 7.69345C29.8467 8.00317 29.9641 8.35537 29.9666 8.75002C29.9641 9.17215 29.8342 9.54057 29.5769 9.8553C29.3197 10.17 28.9899 10.3686 28.5878 10.451V10.5035C28.895 10.5534 29.1735 10.6683 29.4233 10.8482C29.6756 11.0255 29.8754 11.2491 30.0228 11.5188C30.1727 11.7861 30.2488 12.0796 30.2513 12.3993C30.2488 12.8139 30.1202 13.1849 29.8654 13.5121C29.6107 13.8393 29.2585 14.0978 28.8089 14.2876C28.3617 14.475 27.8497 14.5687 27.2727 14.5687ZM27.2727 13.3772C27.53 13.3772 27.7548 13.331 27.9471 13.2386C28.1394 13.1437 28.2893 13.0138 28.3967 12.8489C28.5066 12.6816 28.5616 12.4892 28.5616 12.2719C28.5616 12.0496 28.5054 11.8535 28.393 11.6837C28.2806 11.5113 28.1282 11.3765 27.9359 11.279C27.7435 11.1791 27.5225 11.1292 27.2727 11.1292C27.0254 11.1292 26.8044 11.1791 26.6095 11.279C26.4147 11.3765 26.2611 11.5113 26.1487 11.6837C26.0388 11.8535 25.9838 12.0496 25.9838 12.2719C25.9838 12.4892 26.0375 12.6816 26.1449 12.8489C26.2524 13.0138 26.4035 13.1437 26.5983 13.2386C26.7931 13.331 27.0179 13.3772 27.2727 13.3772ZM27.2727 9.94896C27.4875 9.94896 27.6786 9.90525 27.846 9.81783C28.0133 9.73041 28.1444 9.60926 28.2394 9.4544C28.3343 9.29954 28.3817 9.12094 28.3817 8.91862C28.3817 8.7188 28.3343 8.54395 28.2394 8.39408C28.1444 8.24172 28.0146 8.12307 27.8497 8.03814C27.6848 7.95072 27.4925 7.90701 27.2727 7.90701C27.0554 7.90701 26.8631 7.95072 26.6957 8.03814C26.5284 8.12307 26.3972 8.24172 26.3023 8.39408C26.2099 8.54395 26.1637 8.7188 26.1637 8.91862C26.1637 9.12094 26.2111 9.29954 26.3061 9.4544C26.401 9.60926 26.5321 9.73041 26.6995 9.81783C26.8668 9.90525 27.0579 9.94896 27.2727 9.94896ZM34.3943 14.6323C33.7498 14.6298 33.1953 14.4712 32.7307 14.1565C32.2686 13.8418 31.9127 13.3859 31.6629 12.789C31.4156 12.192 31.2932 11.4739 31.2957 10.6346C31.2957 9.79785 31.4194 9.08472 31.6667 8.49524C31.9164 7.90576 32.2724 7.4574 32.7345 7.15018C33.1991 6.84045 33.7523 6.68558 34.3943 6.68558C35.0362 6.68558 35.5882 6.84045 36.0503 7.15018C36.5149 7.4599 36.8721 7.90951 37.1219 8.49899C37.3716 9.08597 37.4953 9.79785 37.4928 10.6346C37.4928 11.4764 37.3679 12.1957 37.1181 12.7927C36.8708 13.3897 36.5161 13.8455 36.054 14.1603C35.592 14.475 35.0387 14.6323 34.3943 14.6323ZM34.3943 13.2873C34.8339 13.2873 35.1848 13.0662 35.4471 12.6241C35.7094 12.182 35.8392 11.5188 35.8367 10.6346C35.8367 10.0526 35.7768 9.56805 35.6569 9.18089C35.5395 8.79373 35.3721 8.50274 35.1548 8.30791C34.94 8.11308 34.6865 8.01566 34.3943 8.01566C33.9571 8.01566 33.6075 8.23422 33.3452 8.67134C33.0829 9.10845 32.9505 9.76288 32.948 10.6346C32.948 11.2241 33.0067 11.7162 33.1241 12.1108C33.244 12.503 33.4126 12.7977 33.6299 12.995C33.8472 13.1899 34.102 13.2873 34.3943 13.2873ZM38.7807 16.6218V8.7088H39.8748V9.64173H39.9684C40.0334 9.52184 40.127 9.38321 40.2494 9.22585C40.3718 9.06849 40.5417 8.93111 40.759 8.81371C40.9763 8.69382 41.2635 8.63387 41.6207 8.63387C42.0853 8.63387 42.4999 8.75127 42.8646 8.98606C43.2293 9.22085 43.5153 9.55931 43.7226 10.0014C43.9324 10.4435 44.0373 10.9756 44.0373 11.5975C44.0373 12.2195 43.9337 12.7527 43.7264 13.1974C43.519 13.6395 43.2343 13.9804 42.8721 14.2202C42.5099 14.4575 42.0965 14.5761 41.632 14.5761C41.2823 14.5761 40.9963 14.5174 40.774 14.4001C40.5542 14.2827 40.3818 14.1453 40.2569 13.9879C40.132 13.8306 40.0359 13.6907 39.9684 13.5683H39.901V16.6218H38.7807ZM39.8785 11.5863C39.8785 11.9909 39.9372 12.3456 40.0546 12.6503C40.172 12.9551 40.3418 13.1936 40.5641 13.366C40.7865 13.5358 41.0587 13.6207 41.3809 13.6207C41.7156 13.6207 41.9954 13.5321 42.2202 13.3547C42.445 13.1749 42.6148 12.9313 42.7297 12.6241C42.8471 12.3169 42.9058 11.9709 42.9058 11.5863C42.9058 11.2066 42.8484 10.8657 42.7335 10.5634C42.6211 10.2612 42.4512 10.0226 42.2239 9.8478C41.9991 9.67296 41.7181 9.58553 41.3809 9.58553C41.0562 9.58553 40.7815 9.66921 40.5567 9.83656C40.3343 10.0039 40.1657 10.2375 40.0508 10.5372C39.9359 10.8369 39.8785 11.1866 39.8785 11.5863Z" fill="#F4B928"/>
<path d="M13.223 26.0725V20.7603H16.4083V21.3309H13.8663V23.1259H16.1696V23.6965H13.8663V26.0725H13.223ZM20.9962 20.7603H21.6395V24.2775C21.6395 24.6407 21.5539 24.9649 21.3827 25.2503C21.2132 25.5338 20.9737 25.7578 20.6642 25.9221C20.3546 26.0846 19.9915 26.1659 19.5747 26.1659C19.158 26.1659 18.7948 26.0846 18.4853 25.9221C18.1758 25.7578 17.9354 25.5338 17.7642 25.2503C17.5948 24.9649 17.51 24.6407 17.51 24.2775V20.7603H18.1533V24.2257C18.1533 24.4851 18.2104 24.7159 18.3245 24.9182C18.4386 25.1188 18.6012 25.2771 18.8121 25.3929C19.0248 25.507 19.279 25.5641 19.5747 25.5641C19.8704 25.5641 20.1246 25.507 20.3373 25.3929C20.55 25.2771 20.7126 25.1188 20.825 24.9182C20.9391 24.7159 20.9962 24.4851 20.9962 24.2257V20.7603ZM22.9241 26.0725V20.7603H23.5674V25.5019H26.0367V26.0725H22.9241ZM27.0328 26.0725V20.7603H27.6761V25.5019H30.1454V26.0725H27.0328ZM32.6505 26.0725V20.7603H33.7736V22.9521H36.0536V20.7603H37.1742V26.0725H36.0536V23.8781H33.7736V26.0725H32.6505ZM39.9833 26.0725H38.1002V20.7603H39.9989C40.5332 20.7603 40.9932 20.8666 41.3788 21.0793C41.7645 21.2903 42.061 21.5938 42.2685 21.9898C42.4778 22.3858 42.5824 22.8596 42.5824 23.4112C42.5824 23.9646 42.4778 24.4401 42.2685 24.8378C42.061 25.2356 41.7627 25.5408 41.3737 25.7535C40.9863 25.9662 40.5229 26.0725 39.9833 26.0725ZM39.2233 25.1102H39.9366C40.2687 25.1102 40.5479 25.0514 40.7745 24.9338C41.0027 24.8145 41.1739 24.6303 41.2881 24.3813C41.4039 24.1306 41.4618 23.8072 41.4618 23.4112C41.4618 23.0187 41.4039 22.6979 41.2881 22.4489C41.1739 22.1999 41.0036 22.0166 40.7771 21.899C40.5505 21.7814 40.2713 21.7226 39.9392 21.7226H39.2233V25.1102Z" fill="#1C1C1C"/>
</svg>
