<svg width="60" height="11" viewBox="0 0 60 11" fill="none" xmlns="http://www.w3.org/2000/svg">
<g clip-path="url(#clip0_20_361)">
<path d="M41.7166 8.14593C40.3245 8.14593 39.2472 7.43524 39.225 6.20337H40.6659C40.7058 6.72454 41.0605 7.07343 41.6856 7.07343C42.3196 7.07343 42.6964 6.74608 42.6964 6.2809C42.6964 4.86813 39.2339 5.72096 39.2428 3.35629C39.2428 2.18042 40.2226 1.46973 41.6102 1.46973C42.9846 1.46973 43.9289 2.15027 44.0131 3.33045H42.5324C42.5013 2.89973 42.1467 2.56376 41.5703 2.55515C41.0427 2.53792 40.6482 2.78774 40.6482 3.32183C40.6482 4.63123 44.0885 3.899 44.0885 6.19906C44.0929 7.21987 43.2461 8.14593 41.7166 8.14593Z" fill="#FC4964"/>
<path d="M47.8436 2.77051C49.2091 2.77051 50.2775 3.80855 50.2775 5.42376C50.2775 7.03897 49.2091 8.11578 47.8436 8.11578C47.0057 8.11578 46.4116 7.7152 46.0835 7.2931V10.4977H44.7357V2.85665H46.0835V3.60611C46.3983 3.16247 47.0145 2.77051 47.8436 2.77051ZM47.4845 3.92054C46.7618 3.92054 46.0791 4.46325 46.0791 5.4453C46.0791 6.42734 46.7618 6.97005 47.4845 6.97005C48.216 6.97005 48.8987 6.41011 48.8987 5.42807C48.8987 4.44602 48.216 3.92054 47.4845 3.92054Z" fill="#FC4964"/>
<path d="M53.5449 8.11574C52.0065 8.11574 50.845 7.06909 50.845 5.44526C50.845 3.80851 52.0464 2.77478 53.5848 2.77478C55.1232 2.77478 56.3246 3.81282 56.3246 5.44526C56.3246 7.06909 55.0922 8.11574 53.5449 8.11574ZM53.5449 6.97433C54.2542 6.97433 54.937 6.47038 54.937 5.44095C54.937 4.40291 54.272 3.90758 53.5626 3.90758C52.8533 3.90758 52.206 4.40291 52.206 5.44095C52.2104 6.47038 52.8223 6.97433 53.5449 6.97433Z" fill="#FC4964"/>
<path d="M57.4507 3.92914H56.8168V2.85664H57.4507V1.57739H58.8074V2.85664H59.9999V3.92914H58.8074V6.43164C58.8074 6.77622 58.9537 6.92697 59.3748 6.92697H59.9999V8.02962H59.1532C58.1335 8.02962 57.4507 7.60751 57.4507 6.42302V3.92914Z" fill="#FC4964"/>
<path d="M16.3708 1.42664C17.856 1.42664 19.0619 2.19763 19.5096 3.52856H17.9668C17.652 2.90401 17.0757 2.5982 16.3575 2.5982C15.1871 2.5982 14.358 3.42519 14.358 4.74751C14.358 6.06121 15.1915 6.89681 16.3575 6.89681C17.0757 6.89681 17.652 6.591 17.9668 5.95784H19.5096C19.0574 7.29739 17.8515 8.05976 16.3708 8.05976C14.4467 8.05976 12.9792 6.69007 12.9792 4.74751C12.9792 2.80495 14.4423 1.42664 16.3708 1.42664Z" fill="white"/>
<path d="M22.5731 8.08997C21.0303 8.08997 19.9131 7.04762 19.9131 5.4281C19.9131 3.79997 21.0037 2.76624 22.5731 2.76624C24.1071 2.76624 25.1889 3.77843 25.1889 5.31611C25.1889 5.4841 25.18 5.65208 25.149 5.82006H21.2697C21.3362 6.58244 21.8727 7.00886 22.5421 7.00886C23.1185 7.00886 23.4332 6.72889 23.6061 6.38431H25.0514C24.7677 7.3362 23.8854 8.08997 22.5731 8.08997ZM21.283 4.94569H23.8012C23.7835 4.26515 23.2249 3.83874 22.5377 3.83874C21.8948 3.83874 21.385 4.23931 21.283 4.94569Z" fill="white"/>
<path d="M25.7607 1.12085H27.0996V8.0038H25.7607V1.12085Z" fill="white"/>
<path d="M30.3404 8.08997C28.7976 8.08997 27.6804 7.04762 27.6804 5.4281C27.6804 3.79997 28.771 2.76624 30.3404 2.76624C31.8744 2.76624 32.9562 3.77843 32.9562 5.31611C32.9562 5.4841 32.9473 5.65208 32.9163 5.82006H29.037C29.1035 6.58244 29.64 7.00886 30.3094 7.00886C30.8858 7.00886 31.2005 6.72889 31.3734 6.38431H32.8187C32.535 7.3362 31.6527 8.08997 30.3404 8.08997ZM29.0459 4.94569H31.5641C31.5463 4.26515 30.9877 3.83874 30.3005 3.83874C29.6621 3.83874 29.1523 4.23931 29.0459 4.94569Z" fill="white"/>
<path d="M36.6226 2.76621C37.9837 2.76621 39.0433 3.79994 39.0433 5.40654C39.0433 7.01744 37.9792 8.08564 36.6226 8.08564C35.7891 8.08564 35.1951 7.71521 34.8714 7.26726V8.0038H33.5281V1.12085H34.867V3.60612C35.1951 3.13232 35.8157 2.76621 36.6226 2.76621ZM36.2679 3.91193C35.5497 3.91193 34.8714 4.45034 34.8714 5.42808C34.8714 6.40582 35.5497 6.94422 36.2679 6.94422C36.995 6.94422 37.6778 6.38428 37.6778 5.41085C37.6733 4.43311 36.995 3.91193 36.2679 3.91193Z" fill="white"/>
</g>
<path d="M4.93996 9.59743C2.05825 9.5759 -0.0564842 7.29737 0.00115011 4.66566C0.0587844 2.06409 2.33755 -0.0507591 5.01533 0.000927683C7.81725 0.0569216 9.97188 2.2493 9.87878 4.9887C9.79454 7.48689 7.68868 9.59743 4.93996 9.59743ZM8.31379 4.79918C6.37639 4.49767 5.2902 3.4424 4.93996 1.57307C4.59416 3.45102 3.49024 4.49337 1.56614 4.79918C3.51684 5.10069 4.59859 6.16888 4.9444 8.01668C5.28577 6.15596 6.37639 5.1093 8.31379 4.79918Z" fill="#FC4964"/>
<path d="M8.31414 4.79911C6.37674 5.11354 5.28169 6.15589 4.94475 8.01661C4.59451 6.16881 3.51276 5.10062 1.5665 4.79911C3.4906 4.4933 4.59452 3.45095 4.94032 1.573C5.29499 3.44234 6.37674 4.49761 8.31414 4.79911Z" fill="white"/>
<defs>
<clipPath id="clip0_20_361">
<rect width="58.5254" height="10.4967" fill="white" transform="translate(1.47461 0.000976562)"/>
</clipPath>
</defs>
</svg>
